<?xml version="1.0" encoding="utf-8"?>
<!-- Generator: Adobe Illustrator 24.2.3, SVG Export Plug-In . SVG Version: 6.00 Build 0)  -->
<svg version="1.1" id="Capa_1" xmlns="http://www.w3.org/2000/svg" xmlns:xlink="http://www.w3.org/1999/xlink" x="0px" y="0px"
	 viewBox="0 0 32 32" style="enable-background:new 0 0 32 32;" xml:space="preserve">
<style type="text/css">
	.st0{fill:#F74170;}
</style>
<path class="st0" d="M16,1.3c-8.8,0-16,7.2-16,16c0,5.3,2.6,10,6.6,12.9L8.8,18c0,0,0,0,0.1,0h0.7c0.2,2,1.9,3.6,3.9,3.6
	s3.7-1.6,3.9-3.6H18c0.2,2,1.9,3.6,3.9,3.6c0.8,0,1.6-0.3,2.2-0.7l0.5,9.8c4.4-2.9,7.2-7.8,7.2-13.4C32,8.5,24.8,1.3,16,1.3z
	 M13.5,20.9c-1.8,0-3.2-1.4-3.2-3.2s1.4-3.2,3.2-3.2s3.2,1.4,3.2,3.2S15.3,20.9,13.5,20.9z M13.5,13.7c-2.1,0-3.7,1.6-3.9,3.6H8.9
	l1.8-9.9c0-0.2,0.4-0.3,0.5-0.1l3.3,4.1c0.3,0.3,0.7,0.5,1.1,0.5l3.7,0.1c0.5,0,1-0.3,1.3-0.7l2.1-3.6c0.1-0.2,0.5-0.2,0.5,0.1
	l0.5,6.4c-0.5-0.3-1.2-0.5-1.8-0.5c-2.1,0-3.7,1.6-3.9,3.6h-0.6C17.3,15.3,15.6,13.7,13.5,13.7z M18.8,17.7c0-1.8,1.4-3.2,3.2-3.2
	c1.8,0,3.2,1.4,3.2,3.2s-1.4,3.2-3.2,3.2C20.3,20.9,18.8,19.5,18.8,17.7z"/>
<path class="st0" d="M22,15.3c-1.2,0-2.3,1-2.5,2.2v0.1v0.1c0.2,1.3,1.2,2.2,2.5,2.2s2.4-0.9,2.5-2.2v-0.1v-0.1
	C24.3,16.2,23.2,15.3,22,15.3z M20.2,17.7c0.2-0.9,0.9-1.5,1.7-1.5c-0.3,0.5-0.3,0.9-0.3,1.5c0,0.6,0.2,1,0.4,1.5
	C21.1,19.2,20.4,18.6,20.2,17.7z"/>
<path class="st0" d="M13.5,15.3c-1.2,0-2.3,1-2.5,2.2v0.1v0.1c0.2,1.3,1.2,2.2,2.5,2.2s2.4-0.9,2.5-2.2v-0.1v-0.1
	C15.8,16.2,14.7,15.3,13.5,15.3z M11.7,17.7c0.2-0.8,0.9-1.4,1.6-1.5c-0.3,0.5-0.4,0.9-0.4,1.5c0,0.5,0.2,1,0.4,1.5
	C12.5,19.1,11.9,18.5,11.7,17.7z"/>
</svg>
