<?xml version="1.0" encoding="utf-8"?>
<!-- Generator: Adobe Illustrator 24.2.3, SVG Export Plug-In . SVG Version: 6.00 Build 0)  -->
<svg version="1.1" id="Capa_1" xmlns="http://www.w3.org/2000/svg" xmlns:xlink="http://www.w3.org/1999/xlink" x="0px" y="0px"
	 viewBox="0 0 42 42" style="enable-background:new 0 0 42 42;" xml:space="preserve">
<style type="text/css">
	.st0{fill:#F74170;}
</style>
<g>
	<path class="st0" d="M30.2,38H11.8c-4.4,0-7.9-3.6-7.9-7.9V11.9C3.9,7.6,7.4,4,11.8,4h18.5c4.4,0,7.9,3.6,7.9,7.9v18.1
		C38.1,34.5,34.5,38,30.2,38z M11.8,6.3c-3.1,0-5.7,2.5-5.7,5.7v18.1c0,3.1,2.5,5.7,5.7,5.7h18.4c3.1,0,5.7-2.5,5.8-5.7V11.9
		c0-3.1-2.5-5.7-5.7-5.7H11.8z"/>
</g>
<g>
	<path class="st0" d="M24.8,24.9h-7.7c-2.7,0-4.9-2.2-4.9-4.9c0-2.7,2.2-4.9,4.9-4.9h7.7c2.7,0,4.9,2.2,4.9,4.9
		C29.7,22.7,27.5,24.9,24.8,24.9z M17.1,17.4c-1.4,0-2.6,1.2-2.6,2.6c0,1.4,1.2,2.6,2.6,2.6h7.7c1.4,0,2.6-1.2,2.6-2.6
		c0-1.4-1.2-2.6-2.6-2.6H17.1z"/>
</g>
<g>
	<path class="st0" d="M37,13.3H5c-0.6,0-1.1-0.5-1.1-1.1S4.4,11,5,11H37c0.6,0,1.1,0.5,1.1,1.1S37.6,13.3,37,13.3z"/>
</g>
<g>
	<path class="st0" d="M23.7,33.2h-5.4c-1.9,0-3.4-1.5-3.4-3.4c0-1.9,1.5-3.4,3.4-3.4h5.4c1.9,0,3.4,1.5,3.4,3.4
		C27.1,31.7,25.6,33.2,23.7,33.2z M18.3,28.7c-0.6,0-1.1,0.5-1.1,1.1c0,0.6,0.5,1.1,1.1,1.1h5.4c0.6,0,1.1-0.5,1.1-1.1
		c0-0.6-0.5-1.1-1.1-1.1H18.3z"/>
</g>
<circle class="st0" cx="10.7" cy="8.5" r="1"/>
<circle class="st0" cx="13.6" cy="8.5" r="1"/>
</svg>
