<?xml version="1.0" encoding="utf-8"?>
<!-- Generator: Adobe Illustrator 24.2.3, SVG Export Plug-In . SVG Version: 6.00 Build 0)  -->
<svg version="1.1" id="Capa_1" xmlns="http://www.w3.org/2000/svg" xmlns:xlink="http://www.w3.org/1999/xlink" x="0px" y="0px"
	 viewBox="0 0 45 45" style="enable-background:new 0 0 45 45;" xml:space="preserve">
<style type="text/css">
	.st0{fill:#F74170;}
	.st1{fill:#F0F0F8;}
</style>
<circle class="st0" cx="22.5" cy="22.5" r="22.5"/>
<g>
	<path class="st1" d="M33.8,13.9H11.1c-0.7,0-1.2-0.5-1.2-1.2l0,0c0-0.7,0.5-1.2,1.2-1.2h22.7c0.7,0,1.2,0.5,1.2,1.2l0,0
		C35,13.3,34.5,13.9,33.8,13.9z"/>
	<path class="st1" d="M33.8,23.7H11.1c-0.7,0-1.2-0.5-1.2-1.2l0,0c0-0.7,0.5-1.2,1.2-1.2h22.7c0.7,0,1.2,0.5,1.2,1.2l0,0
		C35,23.1,34.5,23.7,33.8,23.7z"/>
	<path class="st1" d="M33.8,33.5H11.1c-0.7,0-1.2-0.5-1.2-1.2l0,0c0-0.7,0.5-1.2,1.2-1.2h22.7c0.7,0,1.2,0.5,1.2,1.2l0,0
		C35,32.9,34.5,33.5,33.8,33.5z"/>
</g>
</svg>
