<?xml version="1.0" encoding="utf-8"?>
<!-- Generator: Adobe Illustrator 24.2.3, SVG Export Plug-In . SVG Version: 6.00 Build 0)  -->
<svg version="1.1" id="Capa_1" xmlns="http://www.w3.org/2000/svg" xmlns:xlink="http://www.w3.org/1999/xlink" x="0px" y="0px"
	 viewBox="0 0 36 36" style="enable-background:new 0 0 36 36;" xml:space="preserve">
<style type="text/css">
	.st0{fill:#F74170;}
</style>
<g>
	<g>
		<path class="st0" d="M23.3,26c-0.3,0-0.5-0.1-0.6-0.3L20,21.3c-0.2-0.3-0.1-0.8,0.2-1c0.3-0.2,0.8-0.1,1,0.2l1.7,2.8l1.3-5.4
			c0.1-0.4,0.5-0.6,0.9-0.5c0.4,0.1,0.6,0.5,0.5,0.9L24,25.4c-0.1,0.3-0.3,0.5-0.6,0.6C23.4,26,23.3,26,23.3,26z"/>
	</g>
	<g>
		<path class="st0" d="M15,16.4c-0.1,0-0.3,0-0.4-0.1l-4.3-2.7c-0.3-0.2-0.4-0.4-0.3-0.7c0-0.3,0.3-0.5,0.5-0.6l7.1-1.8
			c0.4-0.1,0.8,0.1,0.9,0.5c0.1,0.4-0.1,0.8-0.5,0.9l-5.4,1.3l2.8,1.7c0.3,0.2,0.5,0.7,0.2,1C15.5,16.3,15.3,16.4,15,16.4z"/>
	</g>
	<g>
		<path class="st0" d="M16.7,22.9c-0.2,0-0.4-0.1-0.5-0.2l-2.7-2.7c-0.2-0.2-0.3-0.5-0.2-0.7c1.5-5.2,3.3-7.5,3.4-7.6
			C21,6.1,28.2,6.9,28.5,7c0.3,0,0.6,0.3,0.6,0.6c0,0.3,1.1,6.6-3.5,11.2c-3.3,3.1-8.5,4.1-8.7,4.1C16.8,22.9,16.8,22.9,16.7,22.9z
			 M14.8,19.2l2.1,2.1c1.2-0.3,5.1-1.3,7.6-3.6c3.3-3.3,3.3-7.8,3.2-9.3C26,8.3,21,8.5,17.8,12.6C17.8,12.6,16.2,14.6,14.8,19.2z"/>
	</g>
	<g>
		<path class="st0" d="M21.5,17.2c-1.4,0-2.6-1.2-2.6-2.6S20,12,21.5,12s2.6,1.2,2.6,2.6S22.9,17.2,21.5,17.2z M21.5,13.5
			c-0.6,0-1.1,0.5-1.1,1.1s0.5,1.1,1.1,1.1s1.1-0.5,1.1-1.1S22.1,13.5,21.5,13.5z"/>
	</g>
	<g>
		<path class="st0" d="M27.7,14.7c-0.2,0-0.4-0.1-0.5-0.2L21.8,9c-0.3-0.3-0.3-0.8,0-1s0.8-0.3,1,0l5.5,5.5c0.3,0.3,0.3,0.8,0,1
			C28.1,14.6,27.9,14.7,27.7,14.7z"/>
	</g>
	<g>
		<path class="st0" d="M7.5,29.1c-0.2,0-0.4-0.1-0.5-0.2c-0.2-0.2-0.3-0.5-0.2-0.8l2-5c0.5-1.1,1.5-2,2.7-2.2c1-0.1,1.9,0.2,2.6,0.9
			c0.7,0.7,1,1.6,0.9,2.6c-0.2,1.1-1,2.1-2.1,2.6c0,0,0,0,0,0l-5.1,2C7.6,29.1,7.5,29.1,7.5,29.1z M11.9,22.4c-0.1,0-0.1,0-0.2,0
			c-0.7,0.1-1.3,0.6-1.5,1.2l-1.4,3.4l3.5-1.4c0.7-0.3,1.1-0.8,1.2-1.4c0.1-0.5-0.1-1-0.5-1.3C12.6,22.5,12.2,22.4,11.9,22.4z
			 M12.5,26.4L12.5,26.4L12.5,26.4z"/>
	</g>
</g>
</svg>
