<?xml version="1.0" encoding="utf-8"?>
<!-- Generator: Adobe Illustrator 24.2.3, SVG Export Plug-In . SVG Version: 6.00 Build 0)  -->
<svg version="1.1" id="Capa_1" xmlns="http://www.w3.org/2000/svg" xmlns:xlink="http://www.w3.org/1999/xlink" x="0px" y="0px"
	 viewBox="0 0 36 36" style="enable-background:new 0 0 36 36;" xml:space="preserve">
<style type="text/css">
	.st0{fill:none;stroke:#F74170;stroke-width:2;stroke-miterlimit:10;}
	.st1{fill:#F74170;}
	.st2{fill:none;stroke:#F74170;stroke-width:2;stroke-linecap:round;stroke-linejoin:round;stroke-miterlimit:10;}
	.st3{fill:#FFFFFF;}
	.st4{fill:#FFFFFF;stroke:#F74170;stroke-width:2;stroke-linecap:round;stroke-linejoin:round;stroke-miterlimit:10;}
	.st5{fill:#F0F0F8;}
</style>
<g>
	<path class="st2" d="M3.1,18.9h8c0,0,1.3-0.1,2.4,0.9c0,0,3.3,2.2,9.3,2.2S33.6,20,33.6,20v3.5c0,0-4.3,1.8-11,1.8
		s-11.5-3.1-11.5-3.1v2.4H3.1V18.9z"/>
	<path class="st2" d="M3.1,18.9c0,0-1.4-4.1,0.4-6.3c0,0,4.8,0.7,7.7,0.2c0,0,2.4-0.3,6.3-2.2l4.5,3.6c1.3,1.1,3,1.7,4.7,1.7h2.9
		c2.1,0,4,1.6,4.1,3.7c0,0.1,0,0.2,0,0.3"/>
	<line class="st2" x1="19.4" y1="12.3" x2="17.9" y2="13.8"/>
	<line class="st2" x1="22.6" y1="15.2" x2="21.2" y2="16.6"/>
</g>
</svg>
