<?xml version="1.0" encoding="utf-8"?>
<!-- Generator: Adobe Illustrator 24.2.3, SVG Export Plug-In . SVG Version: 6.00 Build 0)  -->
<svg version="1.1" id="Capa_1" xmlns="http://www.w3.org/2000/svg" xmlns:xlink="http://www.w3.org/1999/xlink" x="0px" y="0px"
	 viewBox="0 0 62.3 62.3" style="enable-background:new 0 0 62.3 62.3;" xml:space="preserve">
<style type="text/css">
	.st0{fill:#F3A3BB;}
	.st1{fill:#F74170;}
</style>
<circle class="st0" cx="31.2" cy="31.2" r="30"/>
<g>
	<path id="XMLID_26_" class="st1" d="M53.7,35.8c-0.5,1.8-1,3.1-1.6,3.9c-0.6,0.8-1.2,1.3-1.9,1.6c-0.7,0.2-1.7,0.4-3.1,0.4h-1.7
		c-1.3,0-2.1-0.1-2.5-0.3c-0.4-0.2-0.6-0.5-0.7-1c-0.1-0.4-0.1-1.4-0.1-3V25.5c0-1.9,0.1-3,0.2-3.5c0.1-0.5,0.3-0.8,0.7-1
		c0.3-0.2,1.1-0.3,2.2-0.3h1v-0.8H35.3v0.8h0.5c1.1,0,1.9,0.1,2.2,0.3c0.3,0.2,0.6,0.6,0.7,1.1c0.1,0.5,0.2,1.7,0.2,3.5v11
		c0,1.9-0.1,3.1-0.2,3.6c-0.1,0.5-0.3,0.9-0.7,1.1c-0.4,0.2-1,0.4-2,0.4h-0.7v0.8h19l0.2-6.6H53.7z"/>
	<path id="XMLID_20_" class="st1" d="M26.2,38c-0.7,1.4-1.7,2.4-3,3c-1.3,0.6-2.5,0.9-3.7,0.9c-2.2,0-4.1-0.9-5.6-2.7
		c-1.5-1.8-2.3-4.4-2.3-7.7c0-3.5,0.7-6.3,2.1-8.2c1.4-1.9,3.2-2.9,5.6-2.9c1.9,0,3.6,0.6,5.2,1.8c1.5,1.2,2.5,3.3,3,6.3h0.7
		L28,19.9h-0.7c-0.1,1-0.4,2-0.9,2.9c-0.7-0.8-1.7-1.6-3-2.3c-1.4-0.7-2.9-1-4.6-1c-2,0-3.9,0.5-5.6,1.4c-1.7,0.9-3,2.4-4,4.4
		c-0.9,2-1.4,4-1.4,6.3c0,3.4,1,6.1,3.1,8.1c2.1,2,4.7,3.1,7.9,3.1c3.1,0,5.6-1.1,7.6-3.3c0.5,0.7,0.9,1.5,1.1,2.4h0.7V34h-0.7
		C27.4,35.3,26.9,36.6,26.2,38"/>
</g>
</svg>
