<?xml version="1.0" encoding="utf-8"?>
<!-- Generator: Adobe Illustrator 24.2.3, SVG Export Plug-In . SVG Version: 6.00 Build 0)  -->
<svg version="1.1" id="Capa_1" xmlns="http://www.w3.org/2000/svg" xmlns:xlink="http://www.w3.org/1999/xlink" x="0px" y="0px"
	 viewBox="0 0 381.8 381.8" style="enable-background:new 0 0 381.8 381.8;" xml:space="preserve">
<style type="text/css">
	.st0{fill:#F3A3BB;}
	.st1{fill:#F9678D;}
	.st2{fill:#FDD9E2;}
	.st3{fill:none;stroke:#000000;stroke-width:10;stroke-linecap:round;stroke-linejoin:round;stroke-miterlimit:10;}
	.st4{fill:none;stroke:#000000;stroke-width:3;stroke-linecap:round;stroke-linejoin:round;stroke-miterlimit:10;}
	.st5{fill:#F0F0F8;}
	.st6{fill:#FA8DA9;}
</style>
<circle class="st0" cx="190.9" cy="190.9" r="181.5"/>
<g>
	<path class="st1" d="M282.4,285.1H166.7V152.2l3.9-23.5c0,0-6.9-15.3-2-32.2c0,0,13.2,7.1,18.6,15.4c0,0,3.4-3.4,15.7-3.4
		s15.2,3.4,15.2,3.4l18.1-15.4c0,0,6.4,10.2,0,32.2l34.8,80.8c0,0,22,40.1,22,51.7C293.1,261.2,297.8,282.5,282.4,285.1z"/>
	<g>
		<circle class="st2" cx="210.8" cy="146" r="5"/>
		<circle class="st2" cx="172.8" cy="146" r="5"/>
	</g>
	<path class="st3" d="M287.7,274.6c0,0,11-0.7,14.9-16c3.8-15.3-1.4-32-1.4-32s-9.5-26.8-12.2-35.8c0,0-4.1-18.6,0.9-27
		c0,0,6.3-15.6,22-11c0,0,16.4,5,10.3,25.4"/>
	<path class="st4" d="M257.1,241.3c0,0-5.7-11.5-18.4-11.5c-12.6,0-18.9,5.7-18.9,5.7"/>
	<path class="st5" d="M226.5,270.2c6.6,0,12-5.4,12-12v-94.1c0-6.7-5.4-12-12-12h-148c-6.6,0-12,5.4-12,12v94.1c0,6.6,5.4,12,12,12
		H58.3c0,8.3,6.8,15.1,15.1,15.1h158.1c8.3,0,15.1-6.8,15.1-15.1H226.5z M76,162h152.9v98.3H76V162z"/>
	<path class="st4" d="M169.5,270.2c0,4.2-3.4,7.6-7.6,7.6H143c-4.2,0-7.6-3.4-7.6-7.6"/>
	<path class="st4" d="M169.5,270.2"/>
	<path class="st4" d="M135.4,270.2"/>
	<line class="st4" x1="58.3" y1="270.2" x2="126.6" y2="270.2"/>
	<line class="st4" x1="178.3" y1="270.2" x2="246.6" y2="270.2"/>
	<rect x="76" y="162" class="st6" width="152.9" height="98.3"/>
	<path class="st1" d="M170.9,195.7L170.9,195.7c-4.4-4.4-11.4-4.4-15.8,0l-2.6,2.6l-2.6-2.6c-4.4-4.4-11.4-4.4-15.8,0l0,0
		c-4.4,4.4-4.4,11.4,0,15.8l18.4,18.4l0,0l0,0l18.4-18.4C175.2,207.1,175.2,200,170.9,195.7z"/>
	<g>
		<g>
			<path class="st5" d="M192.1,231.1c-0.4,0-0.8-0.1-1.1-0.4l-5.5-5.5c-0.6-0.6-0.6-1.5,0-2.1s1.5-0.6,2.1,0l5.5,5.5
				c0.6,0.6,0.6,1.5,0,2.1C192.9,230.9,192.5,231.1,192.1,231.1z"/>
		</g>
		<g>
			<path class="st5" d="M182.7,221.9l2,7.3c0.3,1.1,1.7,1.5,2.4,0.7l5.3-5.3c0.8-0.8,0.4-2.2-0.7-2.4l-7.3-2
				C183.4,219.8,182.4,220.8,182.7,221.9z"/>
		</g>
	</g>
	<line class="st4" x1="144.3" y1="157.3" x2="160.6" y2="157.3"/>
	<path class="st5" d="M120.6,155.8c0,0,2.1,2.4,10.8,2.4s9.3-2.4,9.3-2.4s2.4-9.8-9.3-9.8S120.6,155.8,120.6,155.8z"/>
	<path class="st4" d="M140.7,155.8c0,0-0.6,2.4-9.3,2.4s-10.8-2.4-10.8-2.4s-0.6-9.9,10.8-9.8"/>
	<path class="st4" d="M178.3,120.9c0,0,4-6.7,8.9-8.9"/>
	<path class="st4" d="M227.3,120.9c0,0-4-6.7-8.9-8.9"/>
	<path class="st5" d="M236.3,128.7c0,0-2.8-5.9-4.7-6.9l4.7-25.4C236.3,96.5,242.8,106.3,236.3,128.7z"/>
	<path class="st5" d="M170.6,128.7c0,0,2-4.5,5-7.3l-7-24.9c0,0-3.2,9.3-1.1,21.1C167.5,117.6,168.7,125,170.6,128.7z"/>
	<circle class="st4" cx="172.8" cy="136" r="12"/>
	<circle class="st4" cx="205.6" cy="136" r="12"/>
	<line class="st4" x1="184.8" y1="136" x2="193.6" y2="136"/>
	<circle cx="174.9" cy="137" r="3.7"/>
	<circle cx="205.6" cy="137" r="3.7"/>
</g>
</svg>
