<?xml version="1.0" encoding="utf-8"?>
<!-- Generator: Adobe Illustrator 24.2.3, SVG Export Plug-In . SVG Version: 6.00 Build 0)  -->
<svg version="1.1" id="Capa_1" xmlns="http://www.w3.org/2000/svg" xmlns:xlink="http://www.w3.org/1999/xlink" x="0px" y="0px"
	 viewBox="0 0 283.1 283.1" style="enable-background:new 0 0 283.1 283.1;" xml:space="preserve">
<style type="text/css">
	.st0{clip-path:url(#SVGID_2_);fill:#F3A3BB;}
	.st1{fill:#F9678D;}
	.st2{fill:#F0F0F8;}
	.st3{fill:#F0F0F8;stroke:#000000;stroke-width:4;stroke-linecap:round;stroke-linejoin:round;stroke-miterlimit:10;}
	.st4{fill:none;stroke:#000000;stroke-width:4;stroke-linecap:round;stroke-linejoin:round;stroke-miterlimit:10;}
	.st5{fill:#FA8DA9;}
	.st6{fill:#FDD9E2;}
	.st7{fill:#F3A3BB;}
</style>
<g>
	<g>
		<g>
			<defs>
				<circle id="SVGID_1_" cx="141.5" cy="141.5" r="135"/>
			</defs>
			<clipPath id="SVGID_2_">
				<use xlink:href="#SVGID_1_"  style="overflow:visible;"/>
			</clipPath>
			<circle class="st0" cx="141.5" cy="141.5" r="135"/>
		</g>
	</g>
</g>
<path class="st1" d="M211.8,213.3c-3-7.6,0.8-16.5,0.8-16.5c7.2-25.5,1.4-50.1,1.4-50.1c-5.5-18.7-21.3-33.1-21.3-33.1
	s-6.1-34.6-53.5-34c-38,0.5-51.1,26.6-54.8,36.8c-1,2.9-2.7,5.4-5,7.4c-20.9,13.3-23.3,31-23.3,31c-3.5,11.3,4.7,30.5,4.7,30.5
	l-0.3,9.1l-4.4,7.9C44.6,209.1,36.6,216,32,220.5c24.5,33.9,64.4,56,109.5,56c35.9,0,68.5-14,92.7-36.8
	C211.1,220.8,211.8,213.3,211.8,213.3z"/>
<path class="st2" d="M88,141v14.7c0,0-2.5,49,52.4,51.9c0,0,43.4,3.3,51.3-43.8l1-25.3c0,0,2.3-34.3-52.4-34.3S88,141,88,141z"/>
<path class="st3" d="M194.1,147.1c0,0,9.9-1.4,9.9,7.9c0,9.3-9.9,7.2-9.9,7.2"/>
<path class="st3" d="M87.3,162.3c0,0-9.9,1.4-9.9-7.9c0-9.3,9.9-7.2,9.9-7.2"/>
<path class="st1" d="M87.9,140.8c0,0,9.4-4.6,10.5-18v11.5c0,0,10.8,7.2,40.7,6.5s40.9-5.3,40.9-5.3v-12.7c0,0,3.1,15.8,12.6,18
	l4.9-9l-14-22.9c0,0-21.1-18.6-44.4-18.6s-45.4,22.1-45.4,22.1l-8.2,19.1L87.9,140.8z"/>
<path class="st4" d="M79.4,124.3c0,0-18.3,10-22.6,26.9c-3.5,13.8,3,31.7,3,31.7s2.6,5.1,0.4,12.6c-2.6,9-11.3,11.9-11.3,11.9
	s-10,2.4-15.2,12"/>
<path class="st4" d="M198.5,120.5c0,0,18.1,18.5,18.1,43.1c0,17.5-2.6,28.7-4,33.7c-1.4,4.6-1.8,9.5-1.1,14.3
	c0.4,2.9,1.2,5.9,2.6,8.5c4.5,8.1,18.2,18.5,18.2,18.5"/>
<path class="st5" d="M174.1,242c0-5.7-4.5-10.3-10.1-10.6l0,0h-0.5h-50.8h-0.5l0,0c-5.6,0.3-10.1,4.8-10.1,10.6v1.5l-25.8,16.2
	c18.3,10.1,39.2,16.1,61.4,16.7c0.1,0,0.3,0,0.4,0c1.1,0,2.3,0.1,3.4,0.1c1.3,0,2.6,0,3.8-0.1c0.5,0,0.9,0,1.4-0.1
	c0.8,0,1.6-0.1,2.3-0.1c0.6,0,1.2-0.1,1.8-0.1c0.6,0,1.2-0.1,1.9-0.1c0.7-0.1,1.4-0.1,2.1-0.2c0.5,0,0.9-0.1,1.4-0.1
	c0.8-0.1,1.7-0.2,2.5-0.3c0.1,0,0.2,0,0.2,0c15.7-2,30.6-6.8,44.2-13.7l-29-18.2V242z"/>
<path class="st4" d="M85.7,115.1c0,0,9.4-34.9,54.1-34.9s53,33,53,33"/>
<polyline class="st3" points="152.4,232 149.3,207.4 129.3,207.4 126.1,232 "/>
<path class="st4" d="M134.8,175.2c0,0-0.5,5.7,5.8,5.7c6.2,0,5.2-5.7,5.2-5.7"/>
<path class="st4" d="M112.2,232h50.9c6.1,0,11,4.9,11,11v0.3l27.2,17"/>
<path class="st4" d="M78.1,258.4l24.2-15.1V243c0-6.1,4.9-11,11-11h50.9"/>
<line class="st4" x1="174.1" y1="243.2" x2="127.4" y2="243.2"/>
<path class="st4" d="M98.5,124.3v10c0,0,4.3,6.5,41.9,6.5s40.6-6.1,40.6-6.1v-10.4"/>
<line class="st4" x1="114.5" y1="138.5" x2="114.5" y2="124.3"/>
<line class="st4" x1="164.3" y1="138.5" x2="164.3" y2="107.1"/>
<line class="st4" x1="140.4" y1="140.8" x2="140.4" y2="124.3"/>
<line class="st4" x1="114.5" y1="115.1" x2="114.5" y2="107.1"/>
<g>
	<circle cx="124.3" cy="161.2" r="3.7"/>
	<circle cx="156.5" cy="161.2" r="3.7"/>
</g>
<g>
	<circle class="st6" cx="161.9" cy="174.1" r="5.7"/>
	<circle class="st6" cx="118.4" cy="174.1" r="5.7"/>
</g>
<path class="st4" d="M88,140.8v14.7c0,0-0.2,51.9,52.4,51.9s52.4-53.5,52.4-53.5v-13.1"/>
<path class="st5" d="M203.1,261.7L203.1,261.7c-13.6,6.9-28.5,11.7-44.2,13.7C174.6,273.4,189.5,268.7,203.1,261.7z"/>
<path class="st5" d="M146.7,276.4c-0.5,0-0.9,0-1.4,0.1C145.8,276.4,146.3,276.4,146.7,276.4z"/>
<path class="st5" d="M150.9,276.2c-0.6,0-1.2,0.1-1.8,0.1C149.7,276.3,150.3,276.2,150.9,276.2z"/>
<path class="st5" d="M154.8,275.8c-0.7,0.1-1.4,0.1-2.1,0.2C153.4,276,154.1,275.9,154.8,275.8z"/>
<path class="st5" d="M158.7,275.4c-0.8,0.1-1.7,0.2-2.5,0.3C157,275.6,157.8,275.5,158.7,275.4z"/>
<path class="st7" d="M158.9,275.4c-0.1,0-0.2,0-0.2,0C158.7,275.4,158.8,275.4,158.9,275.4z"/>
<path class="st7" d="M156.2,275.7c-0.5,0-0.9,0.1-1.4,0.1C155.3,275.8,155.7,275.8,156.2,275.7z"/>
<path class="st7" d="M152.7,276c-0.6,0.1-1.2,0.1-1.9,0.1C151.5,276.1,152.1,276.1,152.7,276z"/>
<path class="st7" d="M137.7,276.4c1.3,0,2.6,0.1,3.8,0.1c-1.1,0-2.3,0-3.4-0.1C137.9,276.4,137.8,276.4,137.7,276.4z"/>
<path class="st7" d="M149.1,276.3c-0.8,0-1.6,0.1-2.3,0.1C147.5,276.4,148.3,276.3,149.1,276.3z"/>
<path class="st7" d="M145.3,276.4c-1.3,0-2.5,0.1-3.8,0.1C142.8,276.5,144.1,276.5,145.3,276.4z"/>
</svg>
