<?xml version="1.0" encoding="utf-8"?>
<!-- Generator: Adobe Illustrator 24.2.3, SVG Export Plug-In . SVG Version: 6.00 Build 0)  -->
<svg version="1.1" id="Capa_1" xmlns="http://www.w3.org/2000/svg" xmlns:xlink="http://www.w3.org/1999/xlink" x="0px" y="0px"
	 viewBox="0 0 60 59" style="enable-background:new 0 0 60 59;" xml:space="preserve">
<style type="text/css">
	.st0{fill:#F74170;}
</style>
<path class="st0" d="M30,1.9c-16.6,0-30,13.4-30,30c0,9.9,4.8,18.8,12.3,24.2l4.2-22.8h0.1H18c0.4,3.8,3.5,6.7,7.4,6.7s7-3,7.4-6.7
	H34c0.4,3.8,3.5,6.7,7.4,6.7c1.6,0,3-0.5,4.2-1.3L46.4,57C54.6,51.6,60,42.4,60,31.9C60,15.3,46.6,1.9,30,1.9z M25.4,38.6
	c-3.3,0-6-2.7-6-6s2.7-6,6-6s6,2.7,6,6S28.7,38.6,25.4,38.6z M25.4,25.2c-3.9,0-7,3-7.4,6.7h-1.2l3.4-18.5c0.1-0.5,0.7-0.6,1-0.2
	l6.2,7.6c0.5,0.6,1.3,1,2.1,1l7,0.2c1,0,1.9-0.5,2.5-1.4l4-6.8c0.3-0.5,1-0.3,1,0.2l0.7,12c-1-0.5-2.2-0.8-3.4-0.8
	c-3.9,0-7,3-7.4,6.7h-1.2C32.4,28.2,29.2,25.2,25.4,25.2z M35.3,32.6c0-3.3,2.7-6,6-6s6,2.7,6,6s-2.7,6-6,6S35.3,35.9,35.3,32.6z"/>
<path class="st0" d="M41.3,28.6c-2.4,0-4.4,1.7-4.8,4v0.1v0.1c0.4,2.3,2.4,4,4.8,4c2.4,0,4.4-1.7,4.8-4v-0.1v-0.1
	C45.7,30.3,43.7,28.6,41.3,28.6z M37.9,32.6c0.3-1.5,1.6-2.6,3.2-2.7c-0.4,0.8-0.7,1.7-0.7,2.7s0.3,1.9,0.7,2.7
	C39.5,35.2,38.2,34.1,37.9,32.6z"/>
<path class="st0" d="M25.4,28.6c-2.4,0-4.4,1.7-4.8,4v0.1v0.1c0.4,2.3,2.4,4,4.8,4c2.3,0,4.4-1.7,4.8-4v-0.1v-0.1
	C29.8,30.3,27.8,28.6,25.4,28.6z M22,32.6c0.3-1.5,1.5-2.5,3-2.7c-0.4,0.8-0.7,1.7-0.7,2.7c0,1,0.2,1.9,0.7,2.7
	C23.5,35.1,22.3,34.1,22,32.6z"/>
</svg>
