<?xml version="1.0" encoding="utf-8"?>
<!-- Generator: Adobe Illustrator 24.2.3, SVG Export Plug-In . SVG Version: 6.00 Build 0)  -->
<svg version="1.1" id="Capa_1" xmlns="http://www.w3.org/2000/svg" xmlns:xlink="http://www.w3.org/1999/xlink" x="0px" y="0px"
	 viewBox="0 0 39.9 39.9" style="enable-background:new 0 0 39.9 39.9;" xml:space="preserve">
<style type="text/css">
	.st0{fill:#F74170;}
	.st1{fill:#F0F0F8;}
</style>
<circle class="st0" cx="20" cy="20" r="20"/>
<g>
	<g>
		<path class="st1" d="M10.8,14.4c-2.1,0-3.9-1.7-3.9-3.9s1.7-3.9,3.9-3.9c2.1,0,3.9,1.7,3.9,3.9S12.9,14.4,10.8,14.4z M10.8,8.3
			c-1.2,0-2.2,1-2.2,2.2s1,2.2,2.2,2.2s2.2-1,2.2-2.2S12,8.3,10.8,8.3z"/>
	</g>
	<g>
		<path class="st1" d="M10.8,33.2c-1.9,0-3.5-1.6-3.5-3.5V19.1c0-1.9,1.6-3.5,3.5-3.5s3.5,1.6,3.5,3.5v10.7
			C14.2,31.7,12.7,33.2,10.8,33.2z M10.8,17.2c-1,0-1.9,0.9-1.9,1.9v10.7c0,1,0.9,1.9,1.9,1.9c1,0,1.8-0.8,1.9-1.9l0-10.7
			C12.7,18,11.8,17.2,10.8,17.2z"/>
	</g>
	<g>
		<path class="st1" d="M31.6,33.2h-3.1c-1.1,0-2-0.9-2-2v-8.7c-0.1-0.2-0.6-0.7-2-0.7c-1.3,0-1.6,0.5-1.7,0.7v9.2
			c0,0.8-0.6,1.4-1.4,1.4h-4.2c-0.8,0-1.4-0.6-1.4-1.4V17.1c-0.1-0.3,0-0.6,0.1-0.9c0.2-0.4,0.7-0.6,1.2-0.6h3.5
			c0.6,0,1.1,0.4,1.3,0.9c0.4-0.3,0.8-0.7,1.4-1c1.8-0.9,4.1-0.9,6.8,0.1c0.1,0.1,2.8,1.2,2.8,4.2v12.1C33,32.6,32.3,33.2,31.6,33.2
			z M24.5,20.2c2.8,0,3.5,1.8,3.6,1.8c0,0.1,0.1,0.2,0.1,0.3v8.9c0,0.2,0.2,0.3,0.3,0.3h2.9V19.8c0-1.9-1.7-2.7-1.8-2.7
			c-2.2-0.8-4-0.9-5.4-0.2c-1.6,0.8-2.1,2.3-2.1,2.3c-0.1,0.4-0.5,0.6-0.9,0.6c-0.4-0.1-0.7-0.4-0.7-0.8v-1.9h-3v14.4h3.7v-9.1
			c0,0,0-0.1,0-0.1C21.2,22.2,21.6,20.2,24.5,20.2z M20.7,17.2L20.7,17.2L20.7,17.2z"/>
	</g>
</g>
</svg>
