<?xml version="1.0" encoding="utf-8"?>
<!-- Generator: Adobe Illustrator 24.2.3, SVG Export Plug-In . SVG Version: 6.00 Build 0)  -->
<svg version="1.1" id="Capa_1" xmlns="http://www.w3.org/2000/svg" xmlns:xlink="http://www.w3.org/1999/xlink" x="0px" y="0px"
	 viewBox="0 0 40 40" style="enable-background:new 0 0 40 40;" xml:space="preserve">
<style type="text/css">
	.st0{fill:#F74170;}
	.st1{fill:#F0F0F8;}
</style>
<circle class="st0" cx="20" cy="20" r="20"/>
<g>
	<g>
		<path class="st1" d="M27.7,29.7H12.3c-2.9,0-5.3-2.4-5.3-5.3v-8.8c0-2.9,2.4-5.3,5.3-5.3h15.4c2.9,0,5.3,2.4,5.3,5.3v8.9
			C33,27.4,30.6,29.7,27.7,29.7z M12.3,11.8c-2.1,0-3.8,1.7-3.8,3.8v8.8c0,2.1,1.7,3.8,3.8,3.8h15.4c2.1,0,3.8-1.7,3.8-3.7v-8.9
			c0-2.1-1.7-3.8-3.8-3.8H12.3z"/>
	</g>
	<g>
		<path class="st1" d="M19.8,23.8c-0.2,0-0.4-0.1-0.5-0.2L8,13.6c-0.3-0.3-0.3-0.8-0.1-1.1c0.3-0.3,0.8-0.3,1.1-0.1L19.8,22l11-9.9
			c0.3-0.3,0.8-0.3,1.1,0.1c0.3,0.3,0.3,0.8-0.1,1.1L20.3,23.6C20.1,23.7,20,23.8,19.8,23.8z"/>
	</g>
</g>
</svg>
