<?xml version="1.0" encoding="utf-8"?>
<!-- Generator: Adobe Illustrator 24.2.3, SVG Export Plug-In . SVG Version: 6.00 Build 0)  -->
<svg version="1.1" id="Capa_1" xmlns="http://www.w3.org/2000/svg" xmlns:xlink="http://www.w3.org/1999/xlink" x="0px" y="0px"
	 viewBox="0 0 40 40" style="enable-background:new 0 0 40 40;" xml:space="preserve">
<style type="text/css">
	.st0{fill:#F74170;}
	.st1{fill:#F0F0F8;}
</style>
<circle class="st0" cx="20" cy="20" r="20"/>
<g>
	<g>
		<path class="st1" d="M27.1,33H12.9C9.7,33,7,30.3,7,27.1V12.9C7,9.7,9.7,7,12.9,7h14.2c3.3,0,5.9,2.7,5.9,5.9v14.2
			C33,30.3,30.3,33,27.1,33z M12.9,8.7c-2.3,0-4.2,1.9-4.2,4.2v14.2c0,2.3,1.9,4.2,4.2,4.2h14.2c2.3,0,4.2-1.9,4.2-4.2V12.9
			c0-2.3-1.9-4.2-4.2-4.2H12.9z"/>
	</g>
	<g>
		<path class="st1" d="M20,25.7c-3.1,0-5.7-2.5-5.7-5.7s2.5-5.7,5.7-5.7s5.7,2.5,5.7,5.7S23.1,25.7,20,25.7z M20,16
			c-2.2,0-4,1.8-4,4s1.8,4,4,4s4-1.8,4-4S22.2,16,20,16z"/>
	</g>
	<circle class="st1" cx="26.2" cy="13.5" r="1.4"/>
</g>
</svg>
